<?xml version="1.0" encoding="iso-8859-1"?>
<!-- Generator: Adobe Illustrator 19.0.0, SVG Export Plug-In . SVG Version: 6.00 Build 0)  -->
<svg version="1.1" id="Layer_1" xmlns="http://www.w3.org/2000/svg" xmlns:xlink="http://www.w3.org/1999/xlink" x="0px" y="0px"
	 viewBox="0 0 512 512" style="enable-background:new 0 0 512 512;" xml:space="preserve">
<polygon style="fill:#595959;" points="319.566,370.847 294.674,345.955 462.217,178.412 436.163,152.359 461.055,127.467 
	512,178.412 "/>
<path style="fill:#80CDD8;" d="M498.14,12.72L498.14,12.72c15.44,15.44,15.44,40.475,0,55.915l-24.13,24.13L418.096,36.85
	l24.13-24.13C457.666-2.72,482.7-2.72,498.14,12.72z"/>
<path style="fill:#5293A9;" d="M498.14,12.72L498.14,12.72c15.44,15.44,15.44,40.475,0,55.915l-24.13,24.13l-27.957-27.957
	L498.14,12.72z"/>
<polygon style="fill:#818181;" points="0,510.86 0,510.86 39.403,431.041 79.82,471.457 "/>
<polygon style="fill:#595959;" points="0,510.86 0,510.86 59.611,451.249 79.82,471.457 "/>
<polygon style="fill:#E68D2C;" points="54.015,456.845 78.742,481.573 188.223,415.295 502.385,101.133 456.056,54.804 
	409.727,8.475 95.565,322.637 29.288,432.118 "/>
<g>
	<polygon style="fill:#E06B34;" points="54.015,456.845 78.742,481.573 188.223,415.295 502.385,101.133 456.056,54.804 	"/>
	<polygon style="fill:#E06B34;" points="29.288,432.118 54.015,456.845 78.742,481.573 188.223,415.295 95.565,322.637 	"/>
</g>
<polygon style="fill:#D1393C;" points="54.015,456.845 78.742,481.573 188.223,415.295 141.894,368.966 "/>
<g>
</g>
<g>
</g>
<g>
</g>
<g>
</g>
<g>
</g>
<g>
</g>
<g>
</g>
<g>
</g>
<g>
</g>
<g>
</g>
<g>
</g>
<g>
</g>
<g>
</g>
<g>
</g>
<g>
</g>
</svg>
